<svg version="1.1" viewBox="0.0 0.0 301.5590551181102 283.32020997375326" fill="none" stroke="none" stroke-linecap="square" stroke-miterlimit="10" xmlns:xlink="http://www.w3.org/1999/xlink" xmlns="http://www.w3.org/2000/svg"><clipPath id="p.0"><path d="m0 0l301.55905 0l0 283.32022l-301.55905 0l0 -283.32022z" clip-rule="nonzero"/></clipPath><g clip-path="url(#p.0)"><path fill="#000000" fill-opacity="0.0" d="m0 0l301.55905 0l0 283.32022l-301.55905 0z" fill-rule="evenodd"/><path fill="#fc87aa" d="m101.7979 59.2285l50.015747 50.015747l-50.015747 50.015747l-50.015743 -50.015747z" fill-rule="evenodd"/><path fill="#f1c0c0" d="m104.00015 55.2231l50.015747 -50.01575l50.015747 50.01575l-50.015747 50.015747z" fill-rule="evenodd"/><path fill="#f1c0c0" d="m154.01575 113.24687l50.015747 50.015747l-50.015747 50.015747l-50.015747 -50.015747z" fill-rule="evenodd"/><path fill="#fc87aa" d="m206.32808 59.2285l50.015762 50.015747l-50.015762 50.015747l-50.015747 -50.015747z" fill-rule="evenodd"/><path fill="#000000" fill-opacity="0.0" d="m0 213.27821l308.0315 0l0 79.18111l-308.0315 0z" fill-rule="evenodd"/><path fill="#fc87aa" d="m10.421875 259.6226l4.21875 -0.578125q0.171875 4.046875 1.515625 5.546875q1.34375 1.484375 3.734375 1.484375q1.75 0 3.03125 -0.796875q1.28125 -0.8125 1.75 -2.203125q0.484375 -1.390625 0.484375 -4.421875l0 -24.328125l4.671875 0l0 24.0625q0 4.4375 -1.078125 6.875q-1.0625 2.421875 -3.390625 3.703125q-2.3125 1.28125 -5.453125 1.28125q-4.640625 0 -7.109375 -2.671875q-2.46875 -2.6875 -2.375 -7.953125zm24.882812 -2.78125q0 -7.09375 3.953125 -10.515625q3.296875 -2.84375 8.03125 -2.84375q5.28125 0 8.625 3.453125q3.359375 3.453125 3.359375 9.546875q0 4.9375 -1.484375 7.78125q-1.484375 2.828125 -4.3125 4.390625q-2.828125 1.5625 -6.1875 1.5625q-5.359375 0 -8.671875 -3.4375q-3.3125 -3.453125 -3.3125 -9.9375zm4.453125 0q0 4.921875 2.140625 7.375q2.140625 2.4375 5.390625 2.4375q3.234375 0 5.375 -2.453125q2.140625 -2.46875 2.140625 -7.5q0 -4.734375 -2.15625 -7.171875q-2.140625 -2.453125 -5.359375 -2.453125q-3.25 0 -5.390625 2.4375q-2.140625 2.421875 -2.140625 7.328125zm22.762085 2.78125l4.21875 -0.578125q0.171875 4.046875 1.515625 5.546875q1.34375 1.484375 3.734375 1.484375q1.75 0 3.03125 -0.796875q1.28125 -0.8125 1.75 -2.203125q0.484375 -1.390625 0.484375 -4.421875l0 -24.328125l4.671875 0l0 24.0625q0 4.4375 -1.078125 6.875q-1.0625 2.421875 -3.390625 3.703125q-2.3125 1.28125 -5.453125 1.28125q-4.640625 0 -7.109375 -2.671875q-2.46875 -2.6875 -2.375 -7.953125zm24.882812 -2.78125q0 -7.09375 3.953125 -10.515625q3.296875 -2.84375 8.03125 -2.84375q5.28125 0 8.625 3.453125q3.359375 3.453125 3.359375 9.546875q0 4.9375 -1.484375 7.78125q-1.484375 2.828125 -4.3125 4.390625q-2.828125 1.5625 -6.1875 1.5625q-5.359375 0 -8.671875 -3.4375q-3.3125 -3.453125 -3.3125 -9.9375zm4.453125 0q0 4.921875 2.140625 7.375q2.140625 2.4375 5.390625 2.4375q3.234375 0 5.375 -2.453125q2.140625 -2.46875 2.140625 -7.5q0 -4.734375 -2.15625 -7.171875q-2.140625 -2.453125 -5.359375 -2.453125q-3.25 0 -5.390625 2.4375q-2.140625 2.421875 -2.140625 7.328125zm24.324585 -17.84375l0 -5.03125l4.65625 0l0 3.96875q0 3.234375 -0.75 4.65625q-1.03125 1.953125 -3.234375 2.9375l-1.0625 -1.703125q1.3125 -0.53125 1.9375 -1.671875q0.640625 -1.15625 0.71875 -3.15625l-2.265625 0zm8.599106 23.0l4.296875 -0.671875q0.359375 2.578125 2.0 3.953125q1.65625 1.375 4.609375 1.375q3.0 0 4.4375 -1.21875q1.453125 -1.21875 1.453125 -2.859375q0 -1.46875 -1.28125 -2.3125q-0.890625 -0.578125 -4.4375 -1.46875q-4.765625 -1.203125 -6.609375 -2.078125q-1.84375 -0.875 -2.796875 -2.421875q-0.953125 -1.5625 -0.953125 -3.4375q0 -1.71875 0.78125 -3.171875q0.796875 -1.453125 2.140625 -2.421875q1.015625 -0.75 2.75 -1.265625q1.75 -0.515625 3.75 -0.515625q3.015625 0 5.28125 0.875q2.28125 0.859375 3.359375 2.34375q1.09375 1.484375 1.5 3.953125l-4.234375 0.578125q-0.296875 -1.96875 -1.6875 -3.078125q-1.375 -1.109375 -3.90625 -1.109375q-2.984375 0 -4.265625 0.984375q-1.265625 0.984375 -1.265625 2.3125q0 0.84375 0.515625 1.515625q0.53125 0.703125 1.671875 1.15625q0.640625 0.25 3.828125 1.109375q4.59375 1.234375 6.40625 2.015625q1.828125 0.78125 2.859375 2.28125q1.046875 1.484375 1.046875 3.703125q0 2.171875 -1.265625 4.09375q-1.265625 1.90625 -3.65625 2.953125q-2.375 1.046875 -5.390625 1.046875q-4.984375 0 -7.609375 -2.0625q-2.609375 -2.078125 -3.328125 -6.15625zm40.462753 7.640625l0 -35.3125l13.25 0q4.046875 0 6.484375 1.078125q2.453125 1.0625 3.828125 3.296875q1.390625 2.234375 1.390625 4.65625q0 2.265625 -1.234375 4.265625q-1.21875 2.0 -3.703125 3.234375q3.203125 0.9375 4.921875 3.203125q1.734375 2.265625 1.734375 5.34375q0 2.484375 -1.046875 4.609375q-1.046875 2.125 -2.59375 3.28125q-1.546875 1.15625 -3.875 1.75q-2.3125 0.59375 -5.6875 0.59375l-13.46875 0zm4.671875 -20.46875l7.640625 0q3.109375 0 4.453125 -0.40625q1.78125 -0.53125 2.6875 -1.765625q0.90625 -1.234375 0.90625 -3.078125q0 -1.765625 -0.84375 -3.09375q-0.84375 -1.34375 -2.421875 -1.828125q-1.5625 -0.5 -5.359375 -0.5l-7.0625 0l0 10.671875zm0 16.296875l8.796875 0q2.265625 0 3.171875 -0.15625q1.625 -0.296875 2.703125 -0.96875q1.078125 -0.671875 1.78125 -1.953125q0.703125 -1.296875 0.703125 -2.984375q0 -1.984375 -1.015625 -3.4375q-1.015625 -1.453125 -2.8125 -2.046875q-1.78125 -0.59375 -5.15625 -0.59375l-8.171875 0l0 12.140625zm26.260849 -8.625q0 -7.09375 3.953125 -10.515625q3.296875 -2.84375 8.03125 -2.84375q5.28125 0 8.625 3.453125q3.359375 3.453125 3.359375 9.546875q0 4.9375 -1.484375 7.78125q-1.484375 2.828125 -4.3125 4.390625q-2.828125 1.5625 -6.1875 1.5625q-5.359375 0 -8.671875 -3.4375q-3.3125 -3.453125 -3.3125 -9.9375zm4.453125 0q0 4.921875 2.140625 7.375q2.140625 2.4375 5.390625 2.4375q3.234375 0 5.375 -2.453125q2.140625 -2.46875 2.140625 -7.5q0 -4.734375 -2.15625 -7.171875q-2.140625 -2.453125 -5.359375 -2.453125q-3.25 0 -5.390625 2.4375q-2.140625 2.421875 -2.140625 7.328125zm41.27771 9.640625q-2.40625 2.046875 -4.640625 2.890625q-2.21875 0.84375 -4.765625 0.84375q-4.21875 0 -6.484375 -2.0625q-2.265625 -2.0625 -2.265625 -5.265625q0 -1.875 0.859375 -3.421875q0.859375 -1.5625 2.234375 -2.5q1.390625 -0.9375 3.125 -1.421875q1.265625 -0.328125 3.84375 -0.640625q5.25 -0.625 7.734375 -1.5q0.03125 -0.890625 0.03125 -1.125q0 -2.65625 -1.234375 -3.734375q-1.65625 -1.46875 -4.9375 -1.46875q-3.0625 0 -4.515625 1.078125q-1.453125 1.0625 -2.15625 3.78125l-4.234375 -0.578125q0.578125 -2.71875 1.890625 -4.390625q1.328125 -1.671875 3.828125 -2.578125q2.515625 -0.90625 5.8125 -0.90625q3.28125 0 5.328125 0.78125q2.046875 0.765625 3.0 1.9375q0.96875 1.15625 1.359375 2.9375q0.21875 1.109375 0.21875 4.0l0 5.78125q0 6.046875 0.265625 7.65625q0.28125 1.59375 1.109375 3.0625l-4.53125 0q-0.671875 -1.34375 -0.875 -3.15625zm-0.359375 -9.6875q-2.359375 0.96875 -7.078125 1.640625q-2.671875 0.390625 -3.78125 0.875q-1.109375 0.484375 -1.71875 1.40625q-0.59375 0.921875 -0.59375 2.0625q0 1.734375 1.3125 2.890625q1.3125 1.15625 3.84375 1.15625q2.5 0 4.453125 -1.09375q1.953125 -1.109375 2.875 -3.0q0.6875 -1.46875 0.6875 -4.34375l0 -1.59375zm11.05896 12.84375l0 -25.578125l3.9062347 0l0 3.875q1.484375 -2.71875 2.75 -3.578125q1.265625 -0.875 2.78125 -0.875q2.203125 0 4.453125 1.390625l-1.484375 4.03125q-1.59375 -0.9375 -3.1875 -0.9375q-1.421875 0 -2.546875 0.859375q-1.125 0.84375 -1.609375 2.359375q-0.734375 2.3125 -0.734375 5.0625l0 13.390625l-4.3281097 0zm33.067276 0l0 -3.234375q-2.421875 3.8125 -7.15625 3.8125q-3.046875 0 -5.625 -1.6875q-2.5625 -1.6875 -3.96875 -4.703125q-1.40625 -3.03125 -1.40625 -6.953125q0 -3.828125 1.265625 -6.9375q1.28125 -3.125 3.828125 -4.78125q2.5625 -1.671875 5.71875 -1.671875q2.3125 0 4.109375 0.984375q1.8125 0.96875 2.953125 2.53125l0 -12.671875l4.3125 0l0 35.3125l-4.03125 0zm-13.703125 -12.765625q0 4.90625 2.0625 7.34375q2.078125 2.4375 4.90625 2.4375q2.828125 0 4.8125 -2.328125q2.0 -2.328125 2.0 -7.09375q0 -5.25 -2.03125 -7.703125q-2.015625 -2.453125 -4.984375 -2.453125q-2.890625 0 -4.828125 2.359375q-1.9375 2.359375 -1.9375 7.4375z" fill-rule="nonzero"/></g></svg>